<svg xmlns="http://www.w3.org/2000/svg" xmlns:xlink="http://www.w3.org/1999/xlink" viewBox="0 0 842 666">
  <g id="Layer_0_Image" data-name="Layer 0 Image">
    <image id="Layer_0_Image-2" data-name="Layer 0 Image" width="842" height="666" xlink:href="cap_new_try1.png"/>
  </g>
  <g id="Visor" style="isolation: isolate" class="g_to_interact_with">
    <path d="M186,410c44.35-.65,89.11,7,124,14,13.3,2.68,22-3.43,34,0,29.27,8.39,69.19,14.62,100,22l34,4a1123.9,1123.9,0,0,0,120,36l48,10c20.26,4.31,38.77-4.76,58-1,.33,2.33.67,4.67,1,7-18.36,14.51-30.85,35.39-48,51-48.57,44.22-99.14,88.61-177,103-27.82,5.14-78.83-8.77-98-15-36.69-11.92-68.9-19.54-104-34-71.62-29.51-181.3-69.34-255-13-11.71.63-13.77-1.11-17-9,7.25-17.69,25.52-28.19,39-40,31.86-27.9,60-59.95,92-88l39-44Z" fill-rule="evenodd"/>
  </g>
  <g id="Crown" style="isolation: isolate" class="g_to_interact_with">
    <path d="M574,32c44-.24,84.35,19.33,115,35,103.77,53.07,147,118.75,147,275v80c-2.15,11,3.89,25,0,38a321,321,0,0,0-8,33c-23.85,8.78-79.43,14.31-110,7-9.71-2.32-23.54-10.6-38-8-62.76,11.28-150.64-23.6-202-42l-34-4c-30.81-7.33-70.68-13.91-100-22l-18,2c-26.69-3.43-53.47-8.52-82-14-17.49-3.36-52.63,4-63-5l-5-5q4-27,8-54,1-19,2-38c8.48-42,15.52-84,31-120C260.06,89.81,369.12,35.66,512,36V33c-1.39-3.64-2.83-8.89-1-13,9.36-22.1,48-11.48,62,0Q573.5,26,574,32Z"  fill-rule="evenodd"/>
  </g>
  <g id="Shadow_Image" data-name="Shadow Image">
    <image id="Shadow_Image-2" data-name="Shadow Image" width="842" height="666" xlink:href="cap_new_try2.png"/>
  </g>
  <g id="Shadow_copy_Image" data-name="Shadow copy Image">
    <image id="Shadow_copy_Image-2" data-name="Shadow copy Image" width="842" height="666" xlink:href="cap_new_try3.png"/>
  </g>
</svg>
